<svg width="156" height="40" viewBox="0 0 156 40" fill="none" xmlns="http://www.w3.org/2000/svg">
<path d="M57.72 33C57.32 32.0933 56.9733 31.2667 56.68 30.52C56.3867 29.7733 56.0933 29.0267 55.8 28.28C55.5333 27.5333 55.2533 26.76 54.96 25.96C54.6933 25.1333 54.3733 24.2 54 23.16C53.6267 24.2 53.2933 25.1333 53 25.96C52.7067 26.76 52.4133 27.5333 52.12 28.28C51.8533 29.0267 51.56 29.7733 51.24 30.52C50.9467 31.2667 50.6 32.0933 50.2 33H47.72C46.9733 29.72 46.3467 26.48 45.84 23.28C45.36 20.0533 45 17.1067 44.76 14.44H47.88C47.96 15.48 48.04 16.5067 48.12 17.52C48.2267 18.5067 48.3467 19.5467 48.48 20.64C48.6133 21.7333 48.76 22.92 48.92 24.2C49.1067 25.48 49.3067 26.92 49.52 28.52C49.9467 27.4533 50.3067 26.52 50.6 25.72C50.8933 24.92 51.16 24.16 51.4 23.44C51.64 22.72 51.8667 21.9867 52.08 21.24C52.32 20.4933 52.5733 19.6533 52.84 18.72H55.32C55.5867 19.6533 55.8267 20.4933 56.04 21.24C56.2533 21.9867 56.48 22.72 56.72 23.44C56.96 24.16 57.2133 24.92 57.48 25.72C57.7467 26.52 58.08 27.44 58.48 28.48C58.72 27.0133 58.9333 25.6533 59.12 24.4C59.3067 23.1467 59.4667 21.9733 59.6 20.88C59.7333 19.76 59.8533 18.68 59.96 17.64C60.0667 16.6 60.16 15.5333 60.24 14.44H63.24C63.1067 15.7733 62.9467 17.2 62.76 18.72C62.5733 20.24 62.3467 21.8 62.08 23.4C61.8133 25 61.52 26.6267 61.2 28.28C60.88 29.9067 60.5467 31.48 60.2 33H57.72ZM72.6 30.64C73.4267 30.64 74.16 30.6133 74.8 30.56C75.4667 30.5067 76.0133 30.44 76.44 30.36V24.84C76.0133 24.7067 75.4933 24.6 74.88 24.52C74.2933 24.44 73.6667 24.4 73 24.4C72.3867 24.4 71.7867 24.4533 71.2 24.56C70.6133 24.64 70.0933 24.8 69.64 25.04C69.1867 25.28 68.8133 25.6 68.52 26C68.2267 26.3733 68.08 26.8533 68.08 27.44C68.08 28.64 68.48 29.48 69.28 29.96C70.1067 30.4133 71.2133 30.64 72.6 30.64ZM72.28 14C73.6667 14 74.8267 14.1733 75.76 14.52C76.72 14.8667 77.4933 15.3467 78.08 15.96C78.6667 16.5733 79.08 17.32 79.32 18.2C79.56 19.08 79.68 20.04 79.68 21.08V32.68C78.9067 32.8133 77.88 32.9733 76.6 33.16C75.3467 33.3467 74.0533 33.44 72.72 33.44C71.7067 33.44 70.72 33.3467 69.76 33.16C68.8 33 67.9467 32.7067 67.2 32.28C66.4533 31.8267 65.8533 31.2133 65.4 30.44C64.9467 29.6667 64.72 28.68 64.72 27.48C64.72 26.4133 64.9467 25.52 65.4 24.8C65.88 24.0533 66.48 23.4533 67.2 23C67.9467 22.5467 68.7867 22.2267 69.72 22.04C70.68 21.8267 71.64 21.72 72.6 21.72C73.9067 21.72 75.1867 21.8667 76.44 22.16V21.24C76.44 20.68 76.3733 20.1467 76.24 19.64C76.1333 19.1067 75.9067 18.6267 75.56 18.2C75.24 17.7733 74.7867 17.44 74.2 17.2C73.64 16.9333 72.9067 16.8 72 16.8C70.8533 16.8 69.8533 16.88 69 17.04C68.1467 17.2 67.4933 17.36 67.04 17.52L66.64 14.8C67.0933 14.5867 67.84 14.4 68.88 14.24C69.9467 14.08 71.08 14 72.28 14ZM83.64 33V5.84L86.96 5.28V14.72C87.4933 14.5067 88.0933 14.3467 88.76 14.24C89.4267 14.1067 90.08 14.04 90.72 14.04C92.1333 14.04 93.3067 14.2533 94.24 14.68C95.2 15.08 95.96 15.6533 96.52 16.4C97.08 17.1467 97.48 18.04 97.72 19.08C97.96 20.12 98.08 21.2667 98.08 22.52V33H94.8V23.24C94.8 20.9467 94.48 19.3333 93.84 18.4C93.2 17.44 92.0533 16.96 90.4 16.96C89.7067 16.96 89.0267 17.04 88.36 17.2C87.72 17.3333 87.2533 17.4667 86.96 17.6V33H83.64ZM112.16 30.44C112.16 31.24 111.893 31.9467 111.36 32.56C110.827 33.1733 110.12 33.48 109.24 33.48C108.333 33.48 107.613 33.1733 107.08 32.56C106.547 31.9467 106.28 31.24 106.28 30.44C106.28 29.6133 106.547 28.8933 107.08 28.28C107.613 27.6667 108.333 27.36 109.24 27.36C110.12 27.36 110.827 27.6667 111.36 28.28C111.893 28.8933 112.16 29.6133 112.16 30.44ZM131.64 28.36C131.64 27.6933 131.36 27.1467 130.8 26.72C130.267 26.2933 129.587 25.92 128.76 25.6C127.96 25.28 127.08 24.9733 126.12 24.68C125.16 24.36 124.267 23.9733 123.44 23.52C122.64 23.0667 121.96 22.5067 121.4 21.84C120.867 21.1733 120.6 20.3067 120.6 19.24C120.6 17.7467 121.2 16.5067 122.4 15.52C123.627 14.5067 125.533 14 128.12 14C129.133 14 130.173 14.08 131.24 14.24C132.333 14.3733 133.267 14.56 134.04 14.8L133.44 17.76C133.227 17.6533 132.933 17.5467 132.56 17.44C132.187 17.3067 131.76 17.2 131.28 17.12C130.8 17.0133 130.28 16.9333 129.72 16.88C129.187 16.8267 128.667 16.8 128.16 16.8C125.28 16.8 123.84 17.5867 123.84 19.16C123.84 19.72 124.107 20.2 124.64 20.6C125.2 20.9733 125.893 21.32 126.72 21.64C127.547 21.96 128.44 22.2933 129.4 22.64C130.36 22.96 131.253 23.36 132.08 23.84C132.907 24.32 133.587 24.9067 134.12 25.6C134.68 26.2667 134.96 27.12 134.96 28.16C134.96 29.84 134.307 31.1467 133 32.08C131.693 32.9867 129.627 33.44 126.8 33.44C125.52 33.44 124.347 33.3333 123.28 33.12C122.213 32.9067 121.2 32.5867 120.24 32.16L120.88 29.16C121.813 29.5867 122.787 29.9467 123.8 30.24C124.84 30.5067 125.947 30.64 127.12 30.64C130.133 30.64 131.64 29.88 131.64 28.36ZM153.16 32.48C152.44 32.6667 151.48 32.8667 150.28 33.08C149.107 33.2933 147.72 33.4 146.12 33.4C144.707 33.4 143.533 33.2 142.6 32.8C141.667 32.3733 140.907 31.7867 140.32 31.04C139.733 30.2667 139.32 29.36 139.08 28.32C138.84 27.28 138.72 26.1333 138.72 24.88V14.44H142V24.16C142 26.4533 142.333 28.08 143 29.04C143.693 30 144.84 30.48 146.44 30.48C146.787 30.48 147.133 30.4667 147.48 30.44C147.853 30.4133 148.2 30.3867 148.52 30.36C148.84 30.3067 149.12 30.2667 149.36 30.24C149.6 30.1867 149.76 30.1467 149.84 30.12V14.44H153.16V32.48Z" fill="black"/>
<g clip-path="url(#clip0_2_16)">
<path d="M0 19.9999C0 8.95416 8.95434 0 19.9999 0C31.0457 0 39.9999 8.95434 40 19.9999C40 31.0457 31.0457 39.9999 19.9999 40C8.95416 40 0 31.0457 0 19.9999ZM19.9999 38.636C30.2923 38.636 38.6358 30.2923 38.636 19.9999C38.636 9.70751 30.2923 1.364 19.9999 1.364C9.70751 1.364 1.364 9.70769 1.364 19.9999C1.364 30.2923 9.70769 38.6358 19.9999 38.636Z" fill="#FE633D"/>
<path d="M20 39.8C30.9352 39.8 39.8 30.9353 39.8 20C39.8 9.06477 30.9352 0.200012 20 0.200012C9.06477 0.200012 0.200012 9.06477 0.200012 20C0.200012 30.9353 9.06477 39.8 20 39.8Z" fill="#FE633D"/>
<g clip-path="url(#clip1_2_16)">
<g clip-path="url(#clip2_2_16)">
<path d="M30.977 19.9558C30.977 21.4954 29.7315 22.7402 28.1912 22.7402C26.6537 22.7402 25.4075 21.4954 25.4075 19.9558C25.4075 18.4183 27.9442 15.908 29.4824 15.908C31.0233 15.908 30.977 18.4183 30.977 19.9558Z" fill="white"/>
<path d="M14.5932 19.9558C14.5932 21.4954 13.3476 22.7402 11.807 22.7402C10.2692 22.7402 9.02398 21.4954 9.02398 19.9558C9.02398 18.4183 8.92896 15.908 10.4664 15.908C12.007 15.908 14.5932 18.4183 14.5932 19.9558Z" fill="white"/>
<path d="M26.2884 14.3866C26.2884 15.9258 25.0428 17.1714 23.5032 17.1714C21.9651 17.1714 20.7188 15.9258 20.7188 14.3866C20.7188 12.8494 21.9651 9.24823 23.5032 9.24823C25.0428 9.24789 26.2884 12.8491 26.2884 14.3866Z" fill="white"/>
<path d="M26.898 25.3391C27.6451 28.4175 24.494 30.8373 19.853 30.7495C15.2169 30.6613 12.1206 28.1705 12.9343 25.1802C13.7466 22.1938 16.8974 19.7702 19.9734 19.7702C23.0529 19.7705 26.1512 22.2651 26.898 25.3391Z" fill="white"/>
<path d="M19.2345 14.3866C19.2345 15.9258 17.9886 17.1714 16.449 17.1714C14.9105 17.1714 13.6653 15.9258 13.6653 14.3866C13.6653 12.8494 14.9105 9.24823 16.449 9.24823C17.9886 9.24789 19.2345 12.8491 19.2345 14.3866Z" fill="white"/>
</g>
</g>
</g>
<defs>
<clipPath id="clip0_2_16">
<rect width="40" height="40" fill="white"/>
</clipPath>
<clipPath id="clip1_2_16">
<rect width="21.9543" height="21.5036" fill="white" transform="translate(9.02283 9.24823)"/>
</clipPath>
<clipPath id="clip2_2_16">
<rect width="21.9543" height="21.5036" fill="white" transform="translate(9.02283 9.24823)"/>
</clipPath>
</defs>
</svg>
