<svg width="167" height="40" viewBox="0 0 167 40" fill="none" xmlns="http://www.w3.org/2000/svg">
<mask id="mask0_3_181" style="mask-type:luminance" maskUnits="userSpaceOnUse" x="0" y="0" width="118" height="40">
<path d="M117.07 0H0V39.9987H117.07V0Z" fill="white"/>
</mask>
<g mask="url(#mask0_3_181)">
<mask id="mask1_3_181" style="mask-type:luminance" maskUnits="userSpaceOnUse" x="0" y="0" width="118" height="40">
<path d="M117.07 0H0V39.9987H117.07V0Z" fill="white"/>
</mask>
<g mask="url(#mask1_3_181)">
<mask id="mask2_3_181" style="mask-type:luminance" maskUnits="userSpaceOnUse" x="0" y="7" width="118" height="26">
<path d="M117.07 7.19861H0V32.6472H117.07V7.19861Z" fill="white"/>
</mask>
<g mask="url(#mask2_3_181)">
<mask id="mask3_3_181" style="mask-type:luminance" maskUnits="userSpaceOnUse" x="0" y="7" width="118" height="26">
<path d="M117.07 7.19861H0V32.6472H117.07V7.19861Z" fill="white"/>
</mask>
<g mask="url(#mask3_3_181)">
<path d="M6.66593 32.2241H3.78773L0.00793457 15.6579H2.47L5.45223 29.1224L8.39979 17.385H10.8272L13.7747 29.1224L16.7569 15.6579H19.0803L15.3005 32.2241H12.457L9.57881 20.6279L6.66593 32.2241ZM28.131 32.6471C26.1429 32.6471 24.6056 32.1818 23.519 31.2513C22.4325 30.3255 21.8892 29.0401 21.8892 27.3953C21.8892 25.8208 22.3978 24.6225 23.415 23.8001C24.4322 22.9777 25.9579 22.5665 27.9923 22.5665H34.2342V21.8615C34.2342 20.3341 33.8805 19.2461 33.1731 18.5975C32.4704 17.9536 31.2751 17.6318 29.5875 17.6318C27.4143 17.6318 25.4493 18.1135 23.6924 19.0769L22.8948 16.8564C24.883 15.7754 27.1485 15.2349 29.6916 15.2349C32.1421 15.2349 33.9268 15.7332 35.0456 16.7294C36.1692 17.7305 36.731 19.3119 36.731 21.4737V32.2241H34.8584L34.5463 30.4618C33.5985 31.1902 32.5928 31.7354 31.5295 32.0973C30.466 32.4638 29.3332 32.6471 28.131 32.6471ZM28.4778 30.2504C30.6509 30.2504 32.5697 29.6159 34.2342 28.3469V24.8222H27.9229C26.7439 24.8222 25.87 25.0385 25.3014 25.4707C24.7374 25.9079 24.4552 26.5493 24.4552 27.3953C24.4552 28.3352 24.7904 29.0449 25.4609 29.5242C26.1313 30.0083 27.137 30.2504 28.4778 30.2504ZM45.2962 32.2241H42.7995V7.19861H45.2962V17.1735C47.0485 15.8812 48.9904 15.2349 51.1219 15.2349C53.0361 15.2349 54.4856 15.7519 55.4704 16.7859C56.4507 17.8198 56.9408 19.3824 56.9408 21.4737V32.2241H54.4509V21.8615C54.4509 20.3811 54.1504 19.3048 53.5494 18.6328C52.9483 17.9654 51.9982 17.6318 50.6989 17.6318C49.7741 17.6318 48.8448 17.7892 47.9108 18.104C46.9768 18.4237 46.1054 18.889 45.2962 19.4999V32.2241ZM69.8753 32.6471C69.1586 32.6471 68.546 32.3887 68.0374 31.8717C67.5288 31.3548 67.2745 30.7321 67.2745 30.0036C67.2745 29.2986 67.5288 28.6806 68.0374 28.1496C68.546 27.6232 69.1586 27.36 69.8753 27.36C70.592 27.36 71.2046 27.6232 71.7132 28.1496C72.2218 28.6806 72.4761 29.2986 72.4761 30.0036C72.4761 30.7321 72.2218 31.3548 71.7132 31.8717C71.2046 32.3887 70.592 32.6471 69.8753 32.6471ZM89.9533 32.6471C87.1098 32.6471 84.5669 31.9657 82.3243 30.6028L83.33 28.4526C84.3241 29.0401 85.3875 29.4867 86.5203 29.7921C87.6531 30.0976 88.8321 30.2504 90.0573 30.2504C93.1784 30.2504 94.7388 29.3339 94.7388 27.501C94.7388 26.8196 94.5307 26.3191 94.1146 25.9995C93.6984 25.6846 92.9703 25.4567 91.9299 25.3157L87.9767 24.7517C86.2891 24.4933 85.0592 24.028 84.2871 23.356C83.5103 22.6886 83.122 21.697 83.122 20.3811C83.122 18.7362 83.7184 17.4673 84.9113 16.5744C86.0996 15.6814 87.7686 15.2349 89.9186 15.2349C92.346 15.2349 94.6348 15.7989 96.7848 16.9268L95.8831 19.1121C94.0568 18.1253 92.0455 17.6318 89.8493 17.6318C87.052 17.6318 85.6534 18.4894 85.6534 20.2049C85.6534 20.8628 85.8614 21.3445 86.2775 21.65C86.6937 21.9554 87.4219 22.1787 88.4622 22.3197L92.4154 22.8836C94.1262 23.1187 95.3629 23.5768 96.1259 24.2583C96.8888 24.9397 97.2701 25.9618 97.2701 27.3248C97.2701 29.0401 96.6413 30.356 95.3838 31.2725C94.1215 32.1889 92.3114 32.6471 89.9533 32.6471ZM108.748 32.6471C106.853 32.6471 105.408 32.1231 104.414 31.075C103.42 30.0317 102.923 28.4762 102.923 26.4084V15.6579H105.419V26.0207C105.419 27.501 105.72 28.575 106.321 29.2422C106.922 29.9143 107.87 30.2504 109.164 30.2504C110.112 30.2504 111.053 30.0858 111.987 29.7569C112.926 29.4278 113.788 28.9696 114.574 28.3821V15.6579H117.071V32.2241H115.198L114.921 30.4618C113.996 31.1902 113.018 31.7354 111.987 32.0973C110.961 32.4638 109.881 32.6471 108.748 32.6471Z" fill="white"/>
</g>
</g>
</g>
</g>
<mask id="mask4_3_181" style="mask-type:luminance" maskUnits="userSpaceOnUse" x="126" y="0" width="41" height="40">
<path d="M166.021 0H126.668V40H166.021V0Z" fill="white"/>
</mask>
<g mask="url(#mask4_3_181)">
<mask id="mask5_3_181" style="mask-type:luminance" maskUnits="userSpaceOnUse" x="126" y="0" width="41" height="40">
<path d="M166.021 0H126.668V40H166.021V0Z" fill="white"/>
</mask>
<g mask="url(#mask5_3_181)">
<path d="M126.668 20C126.668 8.95417 135.477 0 146.344 0C157.211 0 166.021 8.95433 166.021 20C166.021 31.0457 157.211 39.9998 146.344 40C135.477 40 126.668 31.0457 126.668 20ZM146.344 38.636C156.47 38.636 164.679 30.2923 164.679 20C164.679 9.70754 156.47 1.364 146.344 1.364C136.219 1.364 128.01 9.70769 128.01 20C128.01 30.2923 136.219 38.6358 146.344 38.636Z" fill="black"/>
<path d="M146.343 39.8C157.102 39.8 165.823 30.9352 165.823 20C165.823 9.06468 157.102 0.199921 146.343 0.199921C135.586 0.199921 126.864 9.06468 126.864 20C126.864 30.9352 135.586 39.8 146.343 39.8Z" fill="black"/>
<mask id="mask6_3_181" style="mask-type:luminance" maskUnits="userSpaceOnUse" x="135" y="9" width="23" height="22">
<path d="M157.144 9.24829H135.544V30.7518H157.144V9.24829Z" fill="white"/>
</mask>
<g mask="url(#mask6_3_181)">
<mask id="mask7_3_181" style="mask-type:luminance" maskUnits="userSpaceOnUse" x="135" y="9" width="23" height="22">
<path d="M157.144 9.24829H135.544V30.7518H157.144V9.24829Z" fill="white"/>
</mask>
<g mask="url(#mask7_3_181)">
<path d="M157.143 19.9556C157.143 21.4952 155.918 22.7401 154.402 22.7401C152.89 22.7401 151.664 21.4952 151.664 19.9556C151.664 18.4182 154.16 15.9078 155.673 15.9078C157.189 15.9078 157.143 18.4182 157.143 19.9556Z" fill="white"/>
<path d="M141.026 19.9556C141.026 21.4952 139.8 22.7401 138.284 22.7401C136.771 22.7401 135.546 21.4952 135.546 19.9556C135.546 18.4182 135.453 15.9078 136.965 15.9078C138.481 15.9078 141.026 18.4182 141.026 19.9556Z" fill="white"/>
<path d="M152.531 14.3867C152.531 15.9259 151.306 17.1715 149.791 17.1715C148.277 17.1715 147.052 15.9259 147.052 14.3867C147.052 12.8495 148.277 9.24829 149.791 9.24829C151.306 9.24798 152.531 12.8492 152.531 14.3867Z" fill="white"/>
<path d="M153.13 25.339C153.866 28.4174 150.765 30.8372 146.2 30.7493C141.638 30.6612 138.592 28.1704 139.392 25.1801C140.192 22.1937 143.292 19.7701 146.318 19.7701C149.347 19.7704 152.396 22.265 153.13 25.339Z" fill="white"/>
<path d="M145.591 14.3867C145.591 15.9259 144.366 17.1715 142.851 17.1715C141.338 17.1715 140.112 15.9259 140.112 14.3867C140.112 12.8495 141.338 9.24829 142.851 9.24829C144.366 9.24798 145.591 12.8492 145.591 14.3867Z" fill="white"/>
</g>
</g>
</g>
</g>
<mask id="mask8_3_181" style="mask-type:luminance" maskUnits="userSpaceOnUse" x="126" y="0" width="41" height="40">
<path d="M166.021 0H126.668V40H166.021V0Z" fill="white"/>
</mask>
<g mask="url(#mask8_3_181)">
<mask id="mask9_3_181" style="mask-type:luminance" maskUnits="userSpaceOnUse" x="126" y="0" width="41" height="40">
<path d="M166.021 0H126.668V40H166.021V0Z" fill="white"/>
</mask>
<g mask="url(#mask9_3_181)">
<path d="M126.668 20C126.668 8.95417 135.477 0 146.344 0C157.211 0 166.021 8.95433 166.021 20C166.021 31.0457 157.211 39.9998 146.344 40C135.477 40 126.668 31.0457 126.668 20ZM146.344 38.636C156.47 38.636 164.679 30.2923 164.679 20C164.679 9.70754 156.47 1.364 146.344 1.364C136.219 1.364 128.01 9.70769 128.01 20C128.01 30.2923 136.219 38.6358 146.344 38.636Z" fill="black"/>
<path d="M146.343 39.8C157.102 39.8 165.823 30.9352 165.823 20C165.823 9.06468 157.102 0.199921 146.343 0.199921C135.586 0.199921 126.864 9.06468 126.864 20C126.864 30.9352 135.586 39.8 146.343 39.8Z" fill="black"/>
<mask id="mask10_3_181" style="mask-type:luminance" maskUnits="userSpaceOnUse" x="135" y="9" width="23" height="22">
<path d="M157.144 9.24829H135.544V30.7518H157.144V9.24829Z" fill="white"/>
</mask>
<g mask="url(#mask10_3_181)">
<mask id="mask11_3_181" style="mask-type:luminance" maskUnits="userSpaceOnUse" x="135" y="9" width="23" height="22">
<path d="M157.144 9.24829H135.544V30.7518H157.144V9.24829Z" fill="white"/>
</mask>
<g mask="url(#mask11_3_181)">
<path d="M157.143 19.9556C157.143 21.4952 155.918 22.7401 154.402 22.7401C152.89 22.7401 151.664 21.4952 151.664 19.9556C151.664 18.4182 154.16 15.9078 155.673 15.9078C157.189 15.9078 157.143 18.4182 157.143 19.9556Z" fill="white"/>
<path d="M141.026 19.9556C141.026 21.4952 139.8 22.7401 138.284 22.7401C136.771 22.7401 135.546 21.4952 135.546 19.9556C135.546 18.4182 135.453 15.9078 136.965 15.9078C138.481 15.9078 141.026 18.4182 141.026 19.9556Z" fill="white"/>
<path d="M152.531 14.3867C152.531 15.9259 151.306 17.1715 149.791 17.1715C148.277 17.1715 147.052 15.9259 147.052 14.3867C147.052 12.8495 148.277 9.24829 149.791 9.24829C151.306 9.24798 152.531 12.8492 152.531 14.3867Z" fill="white"/>
<path d="M153.13 25.339C153.866 28.4174 150.765 30.8372 146.2 30.7493C141.638 30.6612 138.592 28.1704 139.392 25.1801C140.192 22.1937 143.292 19.7701 146.318 19.7701C149.347 19.7704 152.396 22.265 153.13 25.339Z" fill="white"/>
<path d="M145.591 14.3867C145.591 15.9259 144.366 17.1715 142.851 17.1715C141.338 17.1715 140.112 15.9259 140.112 14.3867C140.112 12.8495 141.338 9.24829 142.851 9.24829C144.366 9.24798 145.591 12.8492 145.591 14.3867Z" fill="white"/>
</g>
</g>
</g>
</g>
</svg>
